<svg width="19" height="18" viewBox="0 0 19 18" fill="none" xmlns="http://www.w3.org/2000/svg">
<path fill-rule="evenodd" clip-rule="evenodd" d="M6.69847 4.5896C7.42954 2.9311 8.81989 0.000427246 9.51609 0.000427246C10.5271 -0.000572754 12.7418 5.68643 12.7418 5.68643C12.7418 5.68643 14.792 5.86543 16.449 6.04843C17.3287 6.14543 18.8994 6.29343 18.9977 6.77843C19.0188 6.88343 18.8924 7.31243 18.6627 7.61143C17.6898 8.88143 15.1652 11.6024 15.1652 11.6024C15.1652 11.6024 15.3036 12.9024 15.4269 14.3244C15.5062 15.2444 15.7198 17.1084 15.6426 17.4414C15.5583 17.8084 15.4069 17.9084 15.2494 17.9664C14.8382 18.1164 13.8833 17.5334 12.7679 16.9994C11.2483 16.2704 9.54117 15.4914 9.54117 15.4914C9.54117 15.4914 8.41476 16.0804 7.07973 16.6554C5.65343 17.2694 4.20906 18.2814 3.60624 17.9254C3.23011 17.7024 3.50895 15.9644 3.65338 14.4174C3.78879 12.9584 3.90615 11.6254 3.90615 11.6254C3.90615 11.6254 3.06962 10.6434 2.09568 9.59343C1.0435 8.45843 -0.239372 7.23343 0.0384672 6.78343C0.2481 6.44343 1.20499 6.26143 2.81184 6.06243C4.519 5.85043 6.22415 5.70043 6.22415 5.70043C6.22415 5.70043 6.40998 5.24406 6.69847 4.5896Z" fill="#38415D"/>
</svg>
